REM DIRINDEX 1\2,1\3
REM DIRNAME folder01,folder02,folder03
TITLE ""
FILE "3021-3040.mp3" MP3
  TRACK 01 AUDIO
    TITLE "0:"
    INDEX 01 00:00:00
  TRACK 02 AUDIO
    TITLE "2:cjc039_5041"
    INDEX 01 00:00:23
  TRACK 03 AUDIO
    TITLE "0:"
    INDEX 01 00:01:42
  TRACK 04 AUDIO
    TITLE "3:cjc039_5042"
    INDEX 01 00:02:16
  TRACK 05 AUDIO
    TITLE "0:"
    INDEX 01 00:06:18
  TRACK 06 AUDIO
    TITLE "2:cjc039_5043"
    INDEX 01 00:07:62
  TRACK 07 AUDIO
    TITLE "0:"
    INDEX 01 00:09:12
  TRACK 08 AUDIO
    TITLE "3:cjc039_5044"
    INDEX 01 00:09:59
  TRACK 09 AUDIO
    TITLE "0:"
    INDEX 01 00:14:37
  TRACK 10 AUDIO
    TITLE "2:cjc039_5045"
    INDEX 01 00:16:12
  TRACK 11 AUDIO
    TITLE "0:"
    INDEX 01 00:17:16
  TRACK 12 AUDIO
    TITLE "3:cjc039_5046"
    INDEX 01 00:17:61
  TRACK 13 AUDIO
    TITLE "0:"
    INDEX 01 00:21:66
  TRACK 14 AUDIO
    TITLE "2:cjc039_5047"
    INDEX 01 00:23:42
  TRACK 15 AUDIO
    TITLE "0:"
    INDEX 01 00:24:63
  TRACK 16 AUDIO
    TITLE "3:cjc039_5048"
    INDEX 01 00:25:35
  TRACK 17 AUDIO
    TITLE "0:"
    INDEX 01 00:29:34
  TRACK 18 AUDIO
    TITLE "2:cjc039_5049"
    INDEX 01 00:31:06
  TRACK 19 AUDIO
    TITLE "0:"
    INDEX 01 00:32:11
  TRACK 20 AUDIO
    TITLE "3:cjc039_5050"
    INDEX 01 00:32:64
  TRACK 21 AUDIO
    TITLE "0:"
    INDEX 01 00:36:48
  TRACK 22 AUDIO
    TITLE "2:cjc039_5051"
    INDEX 01 00:38:26
  TRACK 23 AUDIO
    TITLE "0:"
    INDEX 01 00:39:54
  TRACK 24 AUDIO
    TITLE "3:cjc039_5052"
    INDEX 01 00:41:32
  TRACK 25 AUDIO
    TITLE "0:"
    INDEX 01 00:45:24
  TRACK 26 AUDIO
    TITLE "2:cjc039_5053"
    INDEX 01 00:46:70
  TRACK 27 AUDIO
    TITLE "0:"
    INDEX 01 00:48:02
  TRACK 28 AUDIO
    TITLE "3:cjc039_5054"
    INDEX 01 00:48:49
  TRACK 29 AUDIO
    TITLE "0:"
    INDEX 01 00:52:61
  TRACK 30 AUDIO
    TITLE "2:cjc039_5055"
    INDEX 01 00:54:34
  TRACK 31 AUDIO
    TITLE "0:"
    INDEX 01 00:56:06
  TRACK 32 AUDIO
    TITLE "3:cjc039_5056"
    INDEX 01 00:56:53
  TRACK 33 AUDIO
    TITLE "0:"
    INDEX 01 01:00:51
  TRACK 34 AUDIO
    TITLE "2:cjc039_5057"
    INDEX 01 01:02:26
  TRACK 35 AUDIO
    TITLE "0:"
    INDEX 01 01:03:51
  TRACK 36 AUDIO
    TITLE "3:cjc039_5058"
    INDEX 01 01:04:27
  TRACK 37 AUDIO
    TITLE "0:"
    INDEX 01 01:08:15
  TRACK 38 AUDIO
    TITLE "2:cjc039_5059"
    INDEX 01 01:09:59
  TRACK 39 AUDIO
    TITLE "0:"
    INDEX 01 01:11:31
  TRACK 40 AUDIO
    TITLE "3:cjc039_5060"
    INDEX 01 01:12:07
  TRACK 41 AUDIO
    TITLE "0:"
    INDEX 01 01:16:58
  TRACK 42 AUDIO
    TITLE "2:cjc039_5061"
    INDEX 01 01:18:33
  TRACK 43 AUDIO
    TITLE "0:"
    INDEX 01 01:19:32
  TRACK 44 AUDIO
    TITLE "3:cjc039_5062"
    INDEX 01 01:20:06
  TRACK 45 AUDIO
    TITLE "0:"
    INDEX 01 01:23:13
  TRACK 46 AUDIO
    TITLE "2:cjc039_5063"
    INDEX 01 01:24:59
  TRACK 47 AUDIO
    TITLE "0:"
    INDEX 01 01:25:72
  TRACK 48 AUDIO
    TITLE "3:cjc039_5064"
    INDEX 01 01:26:48
  TRACK 49 AUDIO
    TITLE "0:"
    INDEX 01 01:31:06
  TRACK 50 AUDIO
    TITLE "2:cjc039_5065"
    INDEX 01 01:32:55
  TRACK 51 AUDIO
    TITLE "0:"
    INDEX 01 01:34:06
  TRACK 52 AUDIO
    TITLE "3:cjc039_5066"
    INDEX 01 01:34:57
  TRACK 53 AUDIO
    TITLE "0:"
    INDEX 01 01:39:12
  TRACK 54 AUDIO
    TITLE "2:cjc039_5067"
    INDEX 01 01:40:62
  TRACK 55 AUDIO
    TITLE "0:"
    INDEX 01 01:42:45
  TRACK 56 AUDIO
    TITLE "3:cjc039_5068"
    INDEX 01 01:43:21
  TRACK 57 AUDIO
    TITLE "0:"
    INDEX 01 01:47:50
  TRACK 58 AUDIO
    TITLE "2:cjc039_5069"
    INDEX 01 01:49:26
  TRACK 59 AUDIO
    TITLE "0:"
    INDEX 01 01:50:31
  TRACK 60 AUDIO
    TITLE "3:cjc039_5070"
    INDEX 01 01:51:07
  TRACK 61 AUDIO
    TITLE "0:"
    INDEX 01 01:54:25
  TRACK 62 AUDIO
    TITLE "2:cjc039_5071"
    INDEX 01 01:55:71
  TRACK 63 AUDIO
    TITLE "0:"
    INDEX 01 01:57:06
  TRACK 64 AUDIO
    TITLE "3:cjc039_5072"
    INDEX 01 01:57:57
  TRACK 65 AUDIO
    TITLE "0:"
    INDEX 01 02:02:03
  TRACK 66 AUDIO
    TITLE "2:cjc039_5073"
    INDEX 01 02:03:53
  TRACK 67 AUDIO
    TITLE "0:"
    INDEX 01 02:04:45
  TRACK 68 AUDIO
    TITLE "3:cjc039_5074"
    INDEX 01 02:05:25
  TRACK 69 AUDIO
    TITLE "0:"
    INDEX 01 02:08:48
  TRACK 70 AUDIO
    TITLE "2:cjc039_5075"
    INDEX 01 02:10:22
  TRACK 71 AUDIO
    TITLE "0:"
    INDEX 01 02:11:51
  TRACK 72 AUDIO
    TITLE "3:cjc039_5076"
    INDEX 01 02:12:27
  TRACK 73 AUDIO
    TITLE "0:"
    INDEX 01 02:16:48
  TRACK 74 AUDIO
    TITLE "2:cjc039_5077"
    INDEX 01 02:18:25
  TRACK 75 AUDIO
    TITLE "0:"
    INDEX 01 02:19:39
  TRACK 76 AUDIO
    TITLE "3:cjc039_5078"
    INDEX 01 02:20:22
  TRACK 77 AUDIO
    TITLE "0:"
    INDEX 01 02:24:30
  TRACK 78 AUDIO
    TITLE "2:cjc039_5079"
    INDEX 01 02:26:03
  TRACK 79 AUDIO
    TITLE "0:"
    INDEX 01 02:27:30
  TRACK 80 AUDIO
    TITLE "3:cjc039_5080"
    INDEX 01 02:28:06
  TRACK 81 AUDIO
    TITLE "0:"
    INDEX 01 02:32:24
